<svg width="15" height="16" viewBox="0 0 15 16" fill="none" xmlns="http://www.w3.org/2000/svg">
<g opacity="0.9">
<path d="M4.375 3V2.0625" stroke="#1C1C1C" stroke-width="1.5" stroke-linecap="round"/>
<path d="M10.625 3V2.0625" stroke="#1C1C1C" stroke-width="1.5" stroke-linecap="round"/>
<circle cx="10.3125" cy="10.8125" r="0.9375" stroke="#1C1C1C" stroke-width="1.5"/>
<path d="M13.4375 6.125H10.3906H6.71875M1.25 6.125H3.67188" stroke="#1C1C1C" stroke-width="1.5" stroke-linecap="round"/>
<path d="M8.75 14.25H6.25C3.89298 14.25 2.71447 14.25 1.98223 13.5178C1.25 12.7855 1.25 11.607 1.25 9.25V8C1.25 5.64298 1.25 4.46447 1.98223 3.73223C2.71447 3 3.89298 3 6.25 3H8.75C11.107 3 12.2855 3 13.0178 3.73223C13.75 4.46447 13.75 5.64298 13.75 8V9.25C13.75 11.607 13.75 12.7855 13.0178 13.5178C12.6095 13.926 12.0626 14.1066 11.25 14.1866" stroke="#1C1C1C" stroke-width="1.5" stroke-linecap="round"/>
</g>
</svg>
