<svg width="30" height="30" viewBox="0 0 30 30" fill="none" xmlns="http://www.w3.org/2000/svg">
<g opacity="0.9">
<path d="M11.4636 5C11.9784 3.54351 13.3675 2.5 15.0002 2.5C16.633 2.5 18.0221 3.54351 18.5369 5" stroke="white" stroke-width="1.5" stroke-linecap="round"/>
<path d="M15 28C14.5858 28 14.25 28.3358 14.25 28.75C14.25 29.1642 14.5858 29.5 15 29.5V28ZM5.39752 27.2855L5.8958 26.725L5.39752 27.2855ZM24.6025 27.2855L24.1042 26.725L24.6025 27.2855ZM9.95476 29.4175C10.3682 29.4425 10.7236 29.1276 10.7486 28.7141C10.7736 28.3007 10.4587 27.9452 10.0452 27.9203L9.95476 29.4175ZM3 16.25C3 18.5955 2.99918 21.0306 3.20994 23.0637C3.31546 24.0816 3.47668 25.029 3.72975 25.8318C3.97945 26.6239 4.34153 27.3503 4.89925 27.8461L5.8958 26.725C5.62975 26.4885 5.37401 26.0586 5.16035 25.3808C4.95005 24.7137 4.80236 23.8777 4.70194 22.909C4.50082 20.969 4.5 18.6185 4.5 16.25H3ZM15 29.5C17.6328 29.5 19.6745 29.5013 21.2612 29.3116C22.8612 29.1204 24.1126 28.7245 25.1007 27.8461L24.1042 26.725C23.4449 27.3111 22.5466 27.6473 21.0832 27.8222C19.6063 27.9987 17.6706 28 15 28V29.5ZM10.0452 27.9203C7.8952 27.7903 6.71491 27.4531 5.8958 26.725L4.89925 27.8461C6.11916 28.9305 7.74692 29.2841 9.95476 29.4175L10.0452 27.9203ZM25.4999 16.7342C25.499 19.0212 25.4841 21.2628 25.2769 23.1051C25.1734 24.0251 25.0248 24.8165 24.8181 25.448C24.6084 26.0887 24.3605 26.4971 24.1042 26.725L25.1007 27.8461C25.64 27.3668 25.9956 26.6725 26.2437 25.9145C26.4948 25.1473 26.6582 24.244 26.7675 23.2728C26.9857 21.3327 26.999 19.0059 26.9999 16.7348L25.4999 16.7342Z" fill="white"/>
<path d="M18.3254 18.75L22.0799 17.7708M11.6746 18.75L4.16551 16.7915C3.42113 16.5974 3.04894 16.5003 2.81277 16.2676C2.76676 16.2223 2.72518 16.1737 2.68847 16.1224C2.5 15.8589 2.5 15.521 2.5 14.8454C2.5 12.1827 2.5 10.8514 3.34123 9.95257C3.50291 9.77981 3.68453 9.62192 3.88324 9.48135C4.91712 8.75 6.44847 8.75 9.51116 8.75H20.4888C23.5515 8.75 25.0829 8.75 26.1168 9.48135C26.3155 9.62192 26.4971 9.77981 26.6588 9.95257C27.5 10.8514 27.5 12.1827 27.5 14.8454C27.5 15.521 27.5 15.8589 27.3115 16.1224C27.2748 16.1737 27.2332 16.2223 27.1872 16.2676C26.9998 16.4523 26.7267 16.5515 26.25 16.6816" stroke="white" stroke-width="1.5" stroke-linecap="round"/>
<path d="M17.5 16.875H12.5C12.1548 16.875 11.875 17.1548 11.875 17.5V20.2019C11.875 20.4574 12.0306 20.6872 12.2679 20.7822L13.143 21.1322C14.3351 21.609 15.6649 21.609 16.857 21.1322L17.7321 20.7822C17.9694 20.6872 18.125 20.4574 18.125 20.2019V17.5C18.125 17.1548 17.8452 16.875 17.5 16.875Z" stroke="white" stroke-width="1.5" stroke-linecap="round"/>
</g>
</svg>
