<svg width="20" height="20" viewBox="0 0 20 20" fill="none" xmlns="http://www.w3.org/2000/svg">
<g opacity="0.9">
<circle cx="7.50033" cy="4.99999" r="3.33333" stroke="#076BB6" stroke-width="1.5"/>
<path d="M12.5 7.5C13.8807 7.5 15 6.38071 15 5C15 3.61929 13.8807 2.5 12.5 2.5" stroke="#076BB6" stroke-width="1.5" stroke-linecap="round"/>
<path d="M4.90795 17.1536C5.68889 17.3753 6.56912 17.5 7.50033 17.5C10.722 17.5 13.3337 16.0076 13.3337 14.1667C13.3337 12.3257 10.722 10.8333 7.50033 10.8333C4.27866 10.8333 1.66699 12.3257 1.66699 14.1667C1.66699 14.4544 1.7308 14.7337 1.85077 15" stroke="#076BB6" stroke-width="1.5" stroke-linecap="round"/>
<path d="M15 11.6667C16.4619 11.9872 17.5 12.7991 17.5 13.75C17.5 14.6078 16.6552 15.3524 15.4167 15.7254" stroke="#076BB6" stroke-width="1.5" stroke-linecap="round"/>
</g>
</svg>
