<svg width="56" height="56" viewBox="0 0 56 56" fill="none" xmlns="http://www.w3.org/2000/svg">
<rect x="4" y="4" width="48" height="48" rx="24" fill="#E2ECFE"/>
<rect x="4" y="4" width="48" height="48" rx="24" stroke="#F2F7FE" stroke-width="8"/>
<g opacity="0.9">
<path d="M24 26C24 25.5341 24 25.3011 24.0761 25.1173C24.1776 24.8723 24.3723 24.6776 24.6173 24.5761C24.8011 24.5 25.0341 24.5 25.5 24.5C25.9659 24.5 26.1989 24.5 26.3827 24.5761C26.6277 24.6776 26.8224 24.8723 26.9239 25.1173C27 25.3011 27 25.5341 27 26V31C27 31.4659 27 31.6989 26.9239 31.8827C26.8224 32.1277 26.6277 32.3224 26.3827 32.4239C26.1989 32.5 25.9659 32.5 25.5 32.5C25.0341 32.5 24.8011 32.5 24.6173 32.4239C24.3723 32.3224 24.1776 32.1277 24.0761 31.8827C24 31.6989 24 31.4659 24 31V26Z" stroke="#076BB6" stroke-width="1.5"/>
<path d="M29 26C29 25.5341 29 25.3011 29.0761 25.1173C29.1776 24.8723 29.3723 24.6776 29.6173 24.5761C29.8011 24.5 30.0341 24.5 30.5 24.5C30.9659 24.5 31.1989 24.5 31.3827 24.5761C31.6277 24.6776 31.8224 24.8723 31.9239 25.1173C32 25.3011 32 25.5341 32 26V31C32 31.4659 32 31.6989 31.9239 31.8827C31.8224 32.1277 31.6277 32.3224 31.3827 32.4239C31.1989 32.5 30.9659 32.5 30.5 32.5C30.0341 32.5 29.8011 32.5 29.6173 32.4239C29.3723 32.3224 29.1776 32.1277 29.0761 31.8827C29 31.6989 29 31.4659 29 31V26Z" stroke="#076BB6" stroke-width="1.5"/>
<path d="M23 19.8378C24.4709 18.987 26.1786 18.5 28 18.5C33.5228 18.5 38 22.9772 38 28.5C38 34.0228 33.5228 38.5 28 38.5C22.4772 38.5 18 34.0228 18 28.5C18 26.6786 18.487 24.9709 19.3378 23.5" stroke="#076BB6" stroke-width="1.5" stroke-linecap="round"/>
</g>
</svg>
