<svg width="16" height="16" viewBox="0 0 16 16" fill="none" xmlns="http://www.w3.org/2000/svg">
<g opacity="0.9">
<path d="M9.47504 3.04916L10.0543 2.46986C11.0142 1.51005 12.5703 1.51005 13.5301 2.46986C14.49 3.42968 14.49 4.98584 13.5301 5.94566L12.9508 6.52496M9.47504 3.04916C9.47504 3.04916 9.54745 4.28017 10.6336 5.36636C11.7198 6.45255 12.9508 6.52496 12.9508 6.52496M9.47504 3.04916L8 4.5242M12.9508 6.52496L9.66295 9.81285L7.7258 11.75L7.62506 11.8507C7.26434 12.2115 7.08397 12.3918 6.8851 12.5469C6.65051 12.7299 6.39668 12.8868 6.12811 13.0148C5.90043 13.1233 5.65845 13.204 5.17449 13.3653L3.1237 14.0489M3.1237 14.0489L2.6224 14.216C2.38424 14.2954 2.12166 14.2334 1.94414 14.0559C1.76663 13.8783 1.70464 13.6158 1.78403 13.3776L1.95113 12.8763M3.1237 14.0489L1.95113 12.8763M1.95113 12.8763L2.63473 10.8255C2.79605 10.3415 2.87671 10.0996 2.98521 9.87189C3.11321 9.60332 3.27008 9.34949 3.45306 9.1149C3.60818 8.91603 3.78854 8.73566 4.14927 8.37494L5.8125 6.7117" stroke="white" stroke-width="1.5" stroke-linecap="round"/>
</g>
</svg>
