<svg width="100" height="100" viewBox="0 0 100 100" fill="none" xmlns="http://www.w3.org/2000/svg">
<g clip-path="url(#clip0_1366_2111)">
<path d="M95 0H5C2.23858 0 0 2.23858 0 5V95C0 97.7614 2.23858 100 5 100H95C97.7614 100 100 97.7614 100 95V5C100 2.23858 97.7614 0 95 0Z" fill="#E2E6EC"/>
<path fill-rule="evenodd" clip-rule="evenodd" d="M29 28.3334C29 25.9401 30.9401 24 33.3333 24H67.3333C69.7266 24 71.6667 25.9401 71.6667 28.3334V55C71.6667 57.3933 69.7266 59.3334 67.3333 59.3334H33.3333C30.9401 59.3334 29 57.3933 29 55V28.3334ZM33.3333 26C32.0447 26 31 27.0447 31 28.3334V55C31 56.2887 32.0447 57.3334 33.3333 57.3334H67.3333C68.622 57.3334 69.6667 56.2887 69.6667 55V28.3334C69.6667 27.0447 68.622 26 67.3333 26H33.3333Z" fill="#B2B9C4"/>
<path d="M39.0003 37.6667C41.3936 37.6667 43.3337 35.7266 43.3337 33.3333C43.3337 30.9401 41.3936 29 39.0003 29C36.6071 29 34.667 30.9401 34.667 33.3333C34.667 35.7266 36.6071 37.6667 39.0003 37.6667Z" fill="#B2B9C4"/>
<path d="M34.667 51.666V49.6896C34.667 49.2476 34.8426 48.8237 35.1551 48.5111L40.5433 43.123C41.1723 42.4939 42.1846 42.4698 42.8429 43.0683L44.1742 44.2786C44.8258 44.8709 45.8258 44.8542 46.4571 44.2403L56.1554 34.8115C56.8088 34.1762 57.8513 34.1836 58.4957 34.828L66.1788 42.5111C66.4914 42.8237 66.667 43.2476 66.667 43.6896V51.666C66.667 52.5864 65.9208 53.3326 65.0003 53.3326H36.3337C35.4132 53.3326 34.667 52.5864 34.667 51.666Z" fill="#B2B9C4"/>
<path d="M26.2894 66.7866H27.6733L26.9702 71.0373C26.8913 71.5146 26.7092 71.9322 26.4237 72.2901C26.1381 72.6481 25.7749 72.9272 25.3338 73.1275C24.8928 73.3256 24.4006 73.4247 23.8572 73.4247C23.3139 73.4247 22.8558 73.3256 22.483 73.1275C22.1101 72.9272 21.8406 72.6481 21.6744 72.2901C21.5082 71.9322 21.4645 71.5146 21.5433 71.0373L22.2464 66.7866H23.6303L22.9432 70.919C22.9048 71.1683 22.924 71.3899 23.0007 71.5838C23.0795 71.7777 23.2095 71.93 23.3906 72.0408C23.5717 72.1516 23.7955 72.207 24.0618 72.207C24.3303 72.207 24.5732 72.1516 24.7905 72.0408C25.0099 71.93 25.19 71.7777 25.3306 71.5838C25.4734 71.3899 25.5639 71.1683 25.6023 70.919L26.2894 66.7866ZM27.4024 75.1729L28.5338 68.4229H29.8762L29.7387 69.2475H29.7994C29.8804 69.1154 29.988 68.9812 30.1222 68.8448C30.2586 68.7063 30.428 68.5913 30.6304 68.4996C30.8328 68.4059 31.0704 68.359 31.3431 68.359C31.7032 68.359 32.0175 68.4528 32.286 68.6403C32.5544 68.8256 32.7483 69.1058 32.8676 69.4808C32.9891 69.8537 33.0029 70.3214 32.9092 70.8839C32.8197 71.4315 32.6546 71.8938 32.4138 72.271C32.1752 72.646 31.8886 72.9304 31.5541 73.1243C31.2217 73.3161 30.8691 73.4119 30.4962 73.4119C30.232 73.4119 30.0146 73.3683 29.8442 73.2809C29.6759 73.1935 29.5448 73.0838 29.4511 72.9517C29.3573 72.8175 29.2913 72.6822 29.2529 72.5458H29.2018L28.7671 75.1729H27.4024ZM29.4575 70.8775C29.4106 71.1694 29.4085 71.424 29.4511 71.6413C29.4958 71.8587 29.5853 72.0281 29.7195 72.1495C29.8538 72.2688 30.0306 72.3285 30.2501 72.3285C30.4717 72.3285 30.6688 72.2678 30.8414 72.1463C31.0139 72.0227 31.1578 71.8523 31.2728 71.6349C31.3879 71.4155 31.4699 71.163 31.5189 70.8775C31.5637 70.5941 31.5647 70.3448 31.5221 70.1296C31.4795 69.9144 31.3921 69.7461 31.26 69.6246C31.1279 69.5032 30.949 69.4425 30.7231 69.4425C30.5036 69.4425 30.3066 69.5011 30.1318 69.6183C29.9593 69.7354 29.8154 69.9016 29.7004 70.1168C29.5853 70.332 29.5044 70.5856 29.4575 70.8775ZM35.8519 66.7866L34.7653 73.332H33.4038L34.4904 66.7866H35.8519ZM38.0803 73.4279C37.5796 73.4279 37.1652 73.3214 36.8371 73.1083C36.509 72.8931 36.2778 72.5948 36.1436 72.2134C36.0115 71.8299 35.9869 71.3835 36.07 70.8743C36.151 70.3714 36.3193 69.9315 36.575 69.5543C36.8307 69.1772 37.1556 68.8842 37.5498 68.6754C37.944 68.4645 38.3882 68.359 38.8825 68.359C39.3811 68.359 39.7945 68.4666 40.1226 68.6818C40.4507 68.8949 40.6819 69.1932 40.8161 69.5767C40.9504 69.9602 40.9759 70.4066 40.8928 70.9158C40.8097 71.4165 40.6393 71.8555 40.3815 72.2326C40.1237 72.6097 39.7987 72.9038 39.4067 73.1147C39.0146 73.3235 38.5725 73.4279 38.0803 73.4279ZM38.2146 72.3732C38.4447 72.3732 38.6482 72.3082 38.825 72.1783C39.004 72.0462 39.1521 71.8672 39.2693 71.6413C39.3886 71.4134 39.4717 71.1555 39.5186 70.8679C39.5654 70.5845 39.5686 70.3331 39.5281 70.1136C39.4877 69.892 39.4024 69.7173 39.2725 69.5895C39.1446 69.4616 38.9688 69.3977 38.7451 69.3977C38.515 69.3977 38.3105 69.4638 38.1315 69.5959C37.9525 69.7259 37.8044 69.9048 37.6872 70.1328C37.57 70.3608 37.488 70.6197 37.4411 70.9094C37.3964 71.1907 37.3932 71.4421 37.4316 71.6637C37.4699 71.8832 37.5541 72.0568 37.684 72.1847C37.814 72.3104 37.9909 72.3732 38.2146 72.3732ZM42.7625 73.4247C42.4514 73.4247 42.1819 73.3704 41.9539 73.2617C41.7281 73.1509 41.5619 72.9869 41.4553 72.7695C41.3488 72.5522 41.3222 72.2827 41.3754 71.9609C41.4223 71.6882 41.5107 71.4602 41.6407 71.277C41.7728 71.0916 41.9337 70.9425 42.1233 70.8295C42.3129 70.7166 42.5228 70.6303 42.7529 70.5707C42.9852 70.511 43.2249 70.4705 43.472 70.4492C43.7575 70.4194 43.9898 70.3906 44.1688 70.3629C44.3499 70.3352 44.4852 70.2958 44.5747 70.2447C44.6642 70.1914 44.7185 70.1126 44.7377 70.0082V69.989C44.7696 69.7887 44.7323 69.6332 44.6258 69.5224C44.5214 69.4094 44.3541 69.353 44.124 69.353C43.8811 69.353 43.6744 69.4062 43.504 69.5128C43.3357 69.6193 43.2153 69.7546 43.1428 69.9187L41.9028 69.8164C42.0136 69.5181 42.1808 69.2603 42.4046 69.043C42.6304 68.8235 42.9021 68.6552 43.2195 68.538C43.537 68.4187 43.8928 68.359 44.287 68.359C44.5597 68.359 44.8144 68.391 45.0509 68.4549C45.2895 68.5188 45.4951 68.6179 45.6677 68.7521C45.8424 68.8864 45.9681 69.0589 46.0448 69.2699C46.1237 69.4787 46.1396 69.729 46.0928 70.021L45.5399 73.332H44.2487L44.3637 72.6513H44.3254C44.221 72.8047 44.0931 72.94 43.9419 73.0572C43.7906 73.1722 43.6169 73.2628 43.4209 73.3288C43.2249 73.3928 43.0054 73.4247 42.7625 73.4247ZM43.309 72.4851C43.5072 72.4851 43.6894 72.4457 43.8556 72.3668C44.0239 72.2859 44.1624 72.1772 44.271 72.0408C44.3818 71.9045 44.4521 71.75 44.482 71.5774L44.5651 71.0565C44.5225 71.0842 44.4607 71.1087 44.3797 71.13C44.3009 71.1513 44.2146 71.1715 44.1208 71.1907C44.0292 71.2077 43.9365 71.2237 43.8428 71.2386C43.749 71.2514 43.6649 71.2642 43.5903 71.277C43.4262 71.3004 43.2792 71.3377 43.1492 71.3888C43.0193 71.44 42.9138 71.5092 42.8328 71.5966C42.7519 71.6818 42.7018 71.7884 42.6826 71.9162C42.6528 72.1016 42.6965 72.2433 42.8137 72.3413C42.933 72.4371 43.0981 72.4851 43.309 72.4851ZM48.3987 73.4119C48.0237 73.4119 47.7009 73.3161 47.4303 73.1243C47.1618 72.9304 46.9701 72.646 46.855 72.271C46.7421 71.8938 46.7314 71.4315 46.8231 70.8839C46.9168 70.3214 47.0851 69.8537 47.328 69.4808C47.5709 69.1058 47.8586 68.8256 48.191 68.6403C48.5233 68.4528 48.8696 68.359 49.2297 68.359C49.5024 68.359 49.7229 68.4059 49.8912 68.4996C50.0617 68.5913 50.1927 68.7063 50.2844 68.8448C50.376 68.9812 50.4399 69.1154 50.4761 69.2475H50.5177L50.93 66.7866H52.2883L51.2016 73.332H49.8593L49.9903 72.5458H49.9328C49.8476 72.6822 49.7346 72.8175 49.594 72.9517C49.4555 73.0838 49.2872 73.1935 49.089 73.2809C48.893 73.3683 48.6629 73.4119 48.3987 73.4119ZM48.9996 72.3285C49.2169 72.3285 49.4129 72.2688 49.5876 72.1495C49.7623 72.0281 49.9094 71.8587 50.0287 71.6413C50.148 71.424 50.2311 71.1694 50.278 70.8775C50.327 70.5856 50.328 70.332 50.2812 70.1168C50.2343 69.9016 50.1427 69.7354 50.0063 69.6183C49.8721 69.5011 49.6942 69.4425 49.4726 69.4425C49.2488 69.4425 49.0507 69.5032 48.8781 69.6246C48.7077 69.7461 48.566 69.9144 48.453 70.1296C48.3422 70.3448 48.2634 70.5941 48.2165 70.8775C48.1697 71.163 48.1665 71.4155 48.2069 71.6349C48.2474 71.8523 48.3337 72.0227 48.4658 72.1463C48.5979 72.2678 48.7758 72.3285 48.9996 72.3285ZM55.7879 73.4247C55.4768 73.4247 55.2073 73.3704 54.9793 73.2617C54.7535 73.1509 54.5873 72.9869 54.4807 72.7695C54.3742 72.5522 54.3476 72.2827 54.4008 71.9609C54.4477 71.6882 54.5361 71.4602 54.6661 71.277C54.7982 71.0916 54.9591 70.9425 55.1487 70.8295C55.3383 70.7166 55.5482 70.6303 55.7783 70.5707C56.0106 70.511 56.2503 70.4705 56.4974 70.4492C56.7829 70.4194 57.0152 70.3906 57.1942 70.3629C57.3753 70.3352 57.5106 70.2958 57.6001 70.2447C57.6895 70.1914 57.7439 70.1126 57.7631 70.0082V69.989C57.795 69.7887 57.7577 69.6332 57.6512 69.5224C57.5468 69.4094 57.3795 69.353 57.1494 69.353C56.9065 69.353 56.6998 69.4062 56.5294 69.5128C56.3611 69.6193 56.2407 69.7546 56.1682 69.9187L54.9282 69.8164C55.039 69.5181 55.2062 69.2603 55.43 69.043C55.6558 68.8235 55.9275 68.6552 56.2449 68.538C56.5624 68.4187 56.9182 68.359 57.3124 68.359C57.5851 68.359 57.8398 68.391 58.0763 68.4549C58.3149 68.5188 58.5205 68.6179 58.6931 68.7521C58.8678 68.8864 58.9935 69.0589 59.0702 69.2699C59.1491 69.4787 59.165 69.729 59.1182 70.021L58.5653 73.332H57.2741L57.3891 72.6513H57.3508C57.2464 72.8047 57.1185 72.94 56.9672 73.0572C56.816 73.1722 56.6423 73.2628 56.4463 73.3288C56.2503 73.3928 56.0308 73.4247 55.7879 73.4247ZM56.3344 72.4851C56.5326 72.4851 56.7148 72.4457 56.8809 72.3668C57.0493 72.2859 57.1878 72.1772 57.2964 72.0408C57.4072 71.9045 57.4775 71.75 57.5074 71.5774L57.5905 71.0565C57.5479 71.0842 57.4861 71.1087 57.4051 71.13C57.3263 71.1513 57.24 71.1715 57.1462 71.1907C57.0546 71.2077 56.9619 71.2237 56.8682 71.2386C56.7744 71.2514 56.6903 71.2642 56.6157 71.277C56.4516 71.3004 56.3046 71.3377 56.1746 71.3888C56.0447 71.44 55.9392 71.5092 55.8582 71.5966C55.7773 71.6818 55.7272 71.7884 55.708 71.9162C55.6782 72.1016 55.7219 72.2433 55.839 72.3413C55.9584 72.4371 56.1235 72.4851 56.3344 72.4851ZM64.1527 66.7866L63.0661 73.332H61.7045L62.7912 66.7866H64.1527ZM66.3811 73.4279C65.8804 73.4279 65.466 73.3214 65.1379 73.1083C64.8097 72.8931 64.5786 72.5948 64.4443 72.2134C64.3122 71.8299 64.2877 71.3835 64.3708 70.8743C64.4518 70.3714 64.6201 69.9315 64.8758 69.5543C65.1315 69.1772 65.4564 68.8842 65.8506 68.6754C66.2448 68.4645 66.689 68.359 67.1833 68.359C67.6819 68.359 68.0953 68.4666 68.4234 68.6818C68.7515 68.8949 68.9827 69.1932 69.1169 69.5767C69.2512 69.9602 69.2767 70.4066 69.1936 70.9158C69.1105 71.4165 68.9401 71.8555 68.6823 72.2326C68.4244 72.6097 68.0995 72.9038 67.7075 73.1147C67.3154 73.3235 66.8733 73.4279 66.3811 73.4279ZM66.5154 72.3732C66.7455 72.3732 66.949 72.3082 67.1258 72.1783C67.3048 72.0462 67.4529 71.8672 67.57 71.6413C67.6894 71.4134 67.7725 71.1555 67.8193 70.8679C67.8662 70.5845 67.8694 70.3331 67.8289 70.1136C67.7884 69.892 67.7032 69.7173 67.5732 69.5895C67.4454 69.4616 67.2696 69.3977 67.0459 69.3977C66.8158 69.3977 66.6112 69.4638 66.4323 69.5959C66.2533 69.7259 66.1052 69.9048 65.988 70.1328C65.8708 70.3608 65.7888 70.6197 65.7419 70.9094C65.6972 71.1907 65.694 71.4421 65.7323 71.6637C65.7707 71.8832 65.8548 72.0568 65.9848 72.1847C66.1148 72.3104 66.2916 72.3732 66.5154 72.3732ZM71.5811 75.2752C71.1379 75.2752 70.7682 75.2145 70.472 75.093C70.178 74.9737 69.9543 74.8107 69.8009 74.604C69.6496 74.3974 69.5665 74.1651 69.5516 73.9073L70.8428 73.7379C70.8662 73.8381 70.911 73.9308 70.977 74.016C71.0452 74.1012 71.1421 74.1694 71.2678 74.2205C71.3957 74.2717 71.5608 74.2972 71.7632 74.2972C72.0594 74.2972 72.3172 74.2248 72.5367 74.0799C72.7561 73.9371 72.8914 73.6974 72.9426 73.3608L73.0896 72.4627H73.032C72.9511 72.5991 72.8403 72.728 72.6997 72.8494C72.5612 72.9709 72.3918 73.07 72.1915 73.1467C71.9933 73.2234 71.7643 73.2617 71.5044 73.2617C71.1336 73.2617 70.8119 73.1765 70.5392 73.006C70.2686 72.8335 70.0725 72.5703 69.9511 72.2166C69.8318 71.8608 69.8169 71.4112 69.9063 70.8679C70.0001 70.3118 70.1684 69.8473 70.4113 69.4744C70.6542 69.1016 70.9419 68.8224 71.2742 68.6371C71.6066 68.4517 71.9529 68.359 72.3129 68.359C72.5878 68.359 72.8094 68.4059 72.9777 68.4996C73.1482 68.5913 73.2792 68.7063 73.3708 68.8448C73.4624 68.9812 73.5274 69.1154 73.5658 69.2475H73.6201L73.7544 68.4229H75.1063L74.2817 73.38C74.2156 73.7997 74.0569 74.1491 73.8055 74.4283C73.5562 74.7095 73.2398 74.9205 72.8563 75.0611C72.4727 75.2038 72.0477 75.2752 71.5811 75.2752ZM72.0924 72.239C72.3097 72.239 72.5047 72.1847 72.6773 72.076C72.852 71.9652 72.998 71.8075 73.1151 71.603C73.2323 71.3963 73.3144 71.1491 73.3612 70.8615C73.4081 70.5739 73.407 70.3246 73.358 70.1136C73.3112 69.9006 73.2195 69.7354 73.0832 69.6183C72.949 69.5011 72.7721 69.4425 72.5526 69.4425C72.3268 69.4425 72.1286 69.5032 71.9582 69.6246C71.7877 69.744 71.646 69.9102 71.5331 70.1232C71.4223 70.3363 71.3445 70.5824 71.2998 70.8615C71.2529 71.1449 71.2508 71.3899 71.2934 71.5966C71.3382 71.8011 71.4266 71.9599 71.5587 72.0728C71.6908 72.1836 71.8687 72.239 72.0924 72.239ZM77.596 73.4279C77.0953 73.4279 76.6808 73.3214 76.3527 73.1083C76.0246 72.8931 75.7934 72.5948 75.6592 72.2134C75.5271 71.8299 75.5026 71.3835 75.5857 70.8743C75.6666 70.3714 75.835 69.9315 76.0906 69.5543C76.3463 69.1772 76.6713 68.8842 77.0654 68.6754C77.4596 68.4645 77.9039 68.359 78.3982 68.359C78.8968 68.359 79.3101 68.4666 79.6382 68.6818C79.9664 68.8949 80.1975 69.1932 80.3318 69.5767C80.466 69.9602 80.4916 70.4066 80.4085 70.9158C80.3254 71.4165 80.1549 71.8555 79.8971 72.2326C79.6393 72.6097 79.3144 72.9038 78.9223 73.1147C78.5303 73.3235 78.0882 73.4279 77.596 73.4279ZM77.7302 72.3732C77.9603 72.3732 78.1638 72.3082 78.3406 72.1783C78.5196 72.0462 78.6677 71.8672 78.7849 71.6413C78.9042 71.4134 78.9873 71.1555 79.0342 70.8679C79.0811 70.5845 79.0843 70.3331 79.0438 70.1136C79.0033 69.892 78.9181 69.7173 78.7881 69.5895C78.6602 69.4616 78.4845 69.3977 78.2607 69.3977C78.0306 69.3977 77.8261 69.4638 77.6471 69.5959C77.4681 69.7259 77.32 69.9048 77.2029 70.1328C77.0857 70.3608 77.0036 70.6197 76.9568 70.9094C76.912 71.1907 76.9088 71.4421 76.9472 71.6637C76.9855 71.8832 77.0697 72.0568 77.1997 72.1847C77.3296 72.3104 77.5065 72.3732 77.7302 72.3732Z" fill="black"/>
</g>
<defs>
<clipPath id="clip0_1366_2111">
<rect width="100" height="100" fill="white"/>
</clipPath>
</defs>
</svg>
