<svg width="100" height="100" viewBox="0 0 100 100" fill="none" xmlns="http://www.w3.org/2000/svg">
<rect width="100" height="100" rx="5" fill="#E2E6EC"/>
<path fill-rule="evenodd" clip-rule="evenodd" d="M28.667 37C28.667 34.6067 30.6071 32.6666 33.0003 32.6666H67.0003C69.3936 32.6666 71.3337 34.6067 71.3337 37V63.6666C71.3337 66.0599 69.3936 68 67.0003 68H33.0003C30.6071 68 28.667 66.0599 28.667 63.6666V37ZM33.0003 34.6666C31.7117 34.6666 30.667 35.7113 30.667 37V63.6666C30.667 64.9553 31.7117 66 33.0003 66H67.0003C68.289 66 69.3337 64.9553 69.3337 63.6666V37C69.3337 35.7113 68.289 34.6666 67.0003 34.6666H33.0003Z" fill="#B2B9C4"/>
<ellipse cx="38.6673" cy="42" rx="4.33333" ry="4.33333" fill="#B2B9C4"/>
<path d="M34.334 60.3333V58.3569C34.334 57.9149 34.5096 57.491 34.8221 57.1784L40.2103 51.7903C40.8393 51.1612 41.8516 51.1371 42.5099 51.7356L43.8412 52.9459C44.4928 53.5382 45.4928 53.5215 46.1241 52.9076L55.8224 43.4788C56.4758 42.8435 57.5183 42.8509 58.1627 43.4953L65.8458 51.1784C66.1584 51.491 66.334 51.9149 66.334 52.3569V60.3333C66.334 61.2537 65.5878 61.9999 64.6673 61.9999H36.0007C35.0802 61.9999 34.334 61.2537 34.334 60.3333Z" fill="#B2B9C4"/>
</svg>
