<svg width="56" height="56" viewBox="0 0 56 56" fill="none" xmlns="http://www.w3.org/2000/svg">
<rect x="4" y="4" width="48" height="48" rx="24" fill="#E2ECFE"/>
<rect x="4" y="4" width="48" height="48" rx="24" stroke="#F2F7FE" stroke-width="8"/>
<g opacity="0.9">
<path d="M25.5 36.25C25.9142 36.25 26.25 35.9142 26.25 35.5C26.25 35.0858 25.9142 34.75 25.5 34.75V36.25ZM27 21.5V22.25C27.3033 22.25 27.5768 22.0673 27.6929 21.787C27.809 21.5068 27.7448 21.1842 27.5303 20.9697L27 21.5ZM25.5303 18.9697C25.2374 18.6768 24.7626 18.6768 24.4697 18.9697C24.1768 19.2626 24.1768 19.7374 24.4697 20.0303L25.5303 18.9697ZM17.25 28.5C17.25 28.9142 17.5858 29.25 18 29.25C18.4142 29.25 18.75 28.9142 18.75 28.5H17.25ZM19.8699 32.0709C19.6329 31.7312 19.1654 31.6479 18.8257 31.8849C18.486 32.1219 18.4027 32.5894 18.6397 32.9291L19.8699 32.0709ZM25.5 34.75H25.0003V36.25H25.5V34.75ZM25 22.25H27V20.75H25V22.25ZM27.5303 20.9697L25.5303 18.9697L24.4697 20.0303L26.4697 22.0303L27.5303 20.9697ZM18.75 28.5C18.75 25.0482 21.5482 22.25 25 22.25V20.75C20.7198 20.75 17.25 24.2198 17.25 28.5H18.75ZM18.6397 32.9291C20.0389 34.935 22.366 36.25 25.0003 36.25V34.75C22.877 34.75 21.0007 33.6919 19.8699 32.0709L18.6397 32.9291Z" fill="#076BB6"/>
<path d="M29 35.5V34.75C28.6967 34.75 28.4232 34.9327 28.3071 35.213C28.191 35.4932 28.2552 35.8158 28.4697 36.0303L29 35.5ZM30.4697 38.0303C30.7626 38.3232 31.2374 38.3232 31.5303 38.0303C31.8232 37.7374 31.8232 37.2626 31.5303 36.9697L30.4697 38.0303ZM30.5 20.75C30.0858 20.75 29.75 21.0858 29.75 21.5C29.75 21.9142 30.0858 22.25 30.5 22.25V20.75ZM38.75 28.5C38.75 28.0858 38.4142 27.75 38 27.75C37.5858 27.75 37.25 28.0858 37.25 28.5H38.75ZM36.1302 24.9291C36.3671 25.2688 36.8347 25.3521 37.1744 25.1151C37.5141 24.8782 37.5974 24.4107 37.3604 24.0709L36.1302 24.9291ZM31 34.75H29V36.25H31V34.75ZM28.4697 36.0303L30.4697 38.0303L31.5303 36.9697L29.5303 34.9697L28.4697 36.0303ZM30.5 22.25H31V20.75H30.5V22.25ZM37.25 28.5C37.25 31.9518 34.4518 34.75 31 34.75V36.25C35.2802 36.25 38.75 32.7802 38.75 28.5H37.25ZM37.3604 24.0709C35.9613 22.065 33.6342 20.75 31 20.75V22.25C33.1232 22.25 34.9995 23.3081 36.1302 24.9291L37.3604 24.0709Z" fill="#076BB6"/>
</g>
</svg>
