<svg width="15" height="16" viewBox="0 0 15 16" fill="none" xmlns="http://www.w3.org/2000/svg">
<g opacity="0.9">
<path d="M1.5625 4.5625C1.5625 5.94321 2.68179 7.0625 4.0625 7.0625H5.72917C5.92291 7.0625 6.01978 7.0625 6.09926 7.0412C6.31494 6.98341 6.48341 6.81494 6.5412 6.59926C6.5625 6.51978 6.5625 6.42291 6.5625 6.22917V4.5625C6.5625 3.18179 5.44321 2.0625 4.0625 2.0625" stroke="#1C1C1C" stroke-width="1.5" stroke-linecap="round"/>
<path d="M10.9375 13.9375C9.55679 13.9375 8.4375 12.8182 8.4375 11.4375V9.77083C8.4375 9.57709 8.4375 9.48022 8.4588 9.40074C8.51659 9.18506 8.68506 9.01659 8.90074 8.9588C8.98022 8.9375 9.07709 8.9375 9.27083 8.9375H10.9375C12.3182 8.9375 13.4375 10.0568 13.4375 11.4375" stroke="#1C1C1C" stroke-width="1.5" stroke-linecap="round"/>
<path d="M1.5625 11.4375C1.5625 10.0568 2.68179 8.9375 4.0625 8.9375H5.5625C5.91253 8.9375 6.08755 8.9375 6.22124 9.00562C6.33885 9.06554 6.43446 9.16115 6.49438 9.27876C6.5625 9.41245 6.5625 9.58747 6.5625 9.9375V11.4375C6.5625 12.8182 5.44321 13.9375 4.0625 13.9375C2.68179 13.9375 1.5625 12.8182 1.5625 11.4375Z" stroke="#1C1C1C" stroke-width="1.5"/>
<path d="M8.4375 4.5625C8.4375 3.18179 9.55679 2.0625 10.9375 2.0625C12.3182 2.0625 13.4375 3.18179 13.4375 4.5625C13.4375 5.94321 12.3182 7.0625 10.9375 7.0625H9.15179C9.06886 7.0625 9.0274 7.0625 8.99252 7.05857C8.70276 7.02592 8.47408 6.79724 8.44143 6.50748C8.4375 6.4726 8.4375 6.43114 8.4375 6.34821V4.5625Z" stroke="#1C1C1C" stroke-width="1.5"/>
</g>
</svg>
