<svg width="15" height="16" viewBox="0 0 15 16" fill="none" xmlns="http://www.w3.org/2000/svg">
<g opacity="0.9">
<circle cx="7.5" cy="8" r="1.875" stroke="black" stroke-width="1.5"/>
<path d="M2.28832 7.14948C2.58366 7.33505 2.7737 7.65117 2.7737 7.99997C2.77369 8.34876 2.58366 8.66488 2.28832 8.85044C2.08735 8.97671 1.95786 9.07764 1.86574 9.19771C1.66392 9.46072 1.57485 9.79313 1.61812 10.1218C1.65057 10.3683 1.79618 10.6205 2.0874 11.1249C2.37861 11.6293 2.52422 11.8815 2.72148 12.0329C2.98449 12.2347 3.3169 12.3238 3.64558 12.2805C3.79561 12.2607 3.94774 12.1991 4.15754 12.0882C4.46596 11.9252 4.8348 11.9187 5.13691 12.0931C5.43898 12.2676 5.61773 12.5902 5.63076 12.9388C5.63963 13.1759 5.6623 13.3385 5.72021 13.4784C5.84708 13.7846 6.09042 14.028 6.39671 14.1548C6.62642 14.25 6.91763 14.25 7.50006 14.25C8.08249 14.25 8.3737 14.25 8.60341 14.1548C8.9097 14.028 9.15304 13.7846 9.27991 13.4784C9.33782 13.3385 9.36049 13.176 9.36936 12.9388C9.38239 12.5902 9.56115 12.2676 9.86324 12.0931C10.1653 11.9187 10.5341 11.9253 10.8425 12.0883C11.0524 12.1992 11.2045 12.2608 11.3545 12.2806C11.6832 12.3238 12.0156 12.2348 12.2786 12.033C12.4759 11.8816 12.6215 11.6294 12.9127 11.125C13.0424 10.9004 13.1432 10.7259 13.218 10.5795M12.7118 8.85051C12.4164 8.66495 12.2264 8.34884 12.2264 8.00005C12.2264 7.65122 12.4164 7.33507 12.7118 7.14948C12.9127 7.02322 13.0422 6.9223 13.1343 6.80225C13.3361 6.53924 13.4252 6.20682 13.3819 5.87814C13.3495 5.63163 13.2039 5.37943 12.9127 4.87503C12.6214 4.37063 12.4758 4.11844 12.2786 3.96707C12.0156 3.76526 11.6831 3.67619 11.3545 3.71946C11.2044 3.73921 11.0523 3.80088 10.8425 3.91177C10.5341 4.07477 10.1653 4.08128 9.86318 3.90685C9.56113 3.73244 9.38239 3.40981 9.36936 3.06127C9.36049 2.82407 9.33783 2.66147 9.27991 2.52165C9.15304 2.21536 8.9097 1.97202 8.60341 1.84515C8.3737 1.75 8.08249 1.75 7.50006 1.75C6.91763 1.75 6.62642 1.75 6.39671 1.84515C6.09042 1.97202 5.84708 2.21536 5.72021 2.52165C5.6623 2.66146 5.63963 2.82405 5.63076 3.06121C5.61773 3.40979 5.43897 3.73244 5.13688 3.90685C4.83479 4.08126 4.46599 4.07475 4.15759 3.91175C3.94777 3.80085 3.79563 3.73918 3.64559 3.71943C3.31691 3.67616 2.98449 3.76523 2.72148 3.96704C2.52422 4.1184 2.37861 4.3706 2.0874 4.875C1.95776 5.09955 1.85697 5.27412 1.78218 5.42046" stroke="black" stroke-width="1.5" stroke-linecap="round"/>
</g>
</svg>
